<?xml version="1.0" encoding="UTF-8"?>
<svg id="_Слой_1" data-name="Слой 1" xmlns="http://www.w3.org/2000/svg" viewBox="0 0 22 22">
  <defs>
    <style>
      .cls-1 {
        fill: #e9b32f;
        stroke-width: 0px;
      }
    </style>
  </defs>
  <path class="cls-1" d="M15.49,1.51c-.84.08-1.5.78-1.5,1.64v4.77c0,.45-.37.82-.82.83-1.41.02-2.4.6-3.14,1.49-.77.93-1.28,2.21-1.59,3.56-.31,1.34-.43,2.7-.46,3.72-.01.38-.01.72-.01.98h6.94s.08-.04.08-.08v-.59c0-1.29-1.04-2.33-2.33-2.33h-1.17c-.41,0-.75-.34-.75-.75s.34-.75.75-.75h1.17c2.11,0,3.83,1.71,3.83,3.83v.59s.04.08.08.08h.59c.46,0,.83-.37.83-.83V7.75c0-.41.34-.75.75-.75h.36c1.04,0,1.68-1.14,1.13-2.03l-.52-.84c-.24-.39-.67-.63-1.13-.63h-2.26c-.46,0-.83-.37-.83-.83v-1.16ZM6.47,18.5c0-.28,0-.63.01-1.03.04-1.08.16-2.54.5-4.01.34-1.46.92-3,1.9-4.18.86-1.03,2.02-1.78,3.54-1.98.04,0,.07-.04.07-.08V3.15C12.49,1.45,13.83.07,15.51,0c.81-.03,1.49.62,1.49,1.44v.48s.04.08.08.08h1.51c.98,0,1.89.51,2.4,1.34l.6.96c1.08,1.74-.06,3.97-2.02,4.18-.04,0-.07.04-.07.07v9.11c0,1.29-1.04,2.33-2.33,2.33H5.99c-1.57,0-3.08-.85-3.69-2.3-.6-1.44-.28-3.02.72-4.09l1.14-1.22c.25-.24.71-.76.86-1.54.06-.31.21-1.06-.19-1.51-.13-.14-.31-.26-.51-.39-.25-.16-.48-.27-.65-.34-.09-.04-.33-.2-.55-.39-.17-.15-.44-.45-.64-.96-.08-.54.12-1.06.49-1.29.54-.33,1.44-.09,1.84.71.1-.53.49-.95.98-1.07.58-.14,1.04.21,1.1.25.1.08.25.21.37.42.3.54.14,1.13.07,1.38-.08.33-.13.21-.43.96-.22.55-.28.83-.31.99,0,.05-.03.22-.08.57-.08.6-.08.64-.11.85,0,0-.06.37-.15.69-.06.2-.3.85-1.05,1.74-.57.68-.67.6-1.08,1.16-.23.32-.52.7-.6,1.26-.01.08-.1.77.26,1.41.46.84,1.53,1.31,2.7,1.2Z"/>
</svg>