<?xml version="1.0" encoding="UTF-8"?>
<svg id="_Слой_1" data-name="Слой 1" xmlns="http://www.w3.org/2000/svg" version="1.1" viewBox="0 0 24 24">
  <defs>
    <style>
      .cls-1 {
        fill: #c45858;
      }

      .cls-1, .cls-2 {
        stroke-width: 0px;
      }

      .cls-2 {
        fill: #e9b32f;
      }
    </style>
  </defs>
  <path class="cls-2" d="M15.5,3.5c-.8,0-1.5.8-1.5,1.6v4.8c0,.5-.4.8-.8.8-1.4,0-2.4.6-3.1,1.5-.8.9-1.3,2.2-1.6,3.6-.3,1.3-.4,2.7-.5,3.7,0,.4,0,.7,0,1h6.9s0,0,0,0v-.6c0-1.3-1-2.3-2.3-2.3h-1.2c-.4,0-.7-.3-.7-.8s.3-.8.7-.8h1.2c2.1,0,3.8,1.7,3.8,3.8v.6s0,0,0,0h.6c.5,0,.8-.4.8-.8v-9.9c0-.4.3-.8.7-.8h.4c1,0,1.7-1.1,1.1-2l-.5-.8c-.2-.4-.7-.6-1.1-.6h-2.3c-.5,0-.8-.4-.8-.8v-1.2ZM6.5,20.5c0-.3,0-.6,0-1,0-1.1.2-2.5.5-4,.3-1.5.9-3,1.9-4.2.9-1,2-1.8,3.5-2,0,0,0,0,0,0v-4.1c0-1.7,1.3-3.1,3-3.1.8,0,1.5.6,1.5,1.4v.5s0,0,0,0h1.5c1,0,1.9.5,2.4,1.3l.6,1c1.1,1.7,0,4-2,4.2,0,0,0,0,0,0v9.1c0,1.3-1,2.3-2.3,2.3H6c-1.6,0-3.1-.9-3.7-2.3-.6-1.4-.3-3,.7-4.1l1.1-1.2c.2-.2.7-.8.9-1.5,0-.3.2-1.1-.2-1.5-.1-.1-.3-.3-.5-.4-.3-.2-.5-.3-.6-.3,0,0-.3-.2-.5-.4-.2-.2-.4-.4-.6-1,0-.5.1-1.1.5-1.3.5-.3,1.4,0,1.8.7.1-.5.5-.9,1-1.1.6-.1,1,.2,1.1.3.1,0,.3.2.4.4.3.5.1,1.1,0,1.4,0,.3-.1.2-.4,1-.2.5-.3.8-.3,1,0,0,0,.2,0,.6,0,.6,0,.6-.1.9,0,0,0,.4-.1.7,0,.2-.3.9-1.1,1.7-.6.7-.7.6-1.1,1.2-.2.3-.5.7-.6,1.3,0,0,0,.8.3,1.4.5.8,1.5,1.3,2.7,1.2Z"/>
  <polyline class="cls-1" points="0 24 0 24 0 24"/>
  <path class="cls-1" d="M4.3,14.7"/>
  <path class="cls-1" d="M5.4,15.8"/>
  <path class="cls-1" d="M5.5,15.9"/>
  <line class="cls-1" y1="24" y2="24"/>
  <path class="cls-1" d="M2.6,14.3"/>
</svg>